<?xml version="1.0" standalone="no"?><!DOCTYPE svg PUBLIC "-//W3C//DTD SVG 1.1//EN" "http://www.w3.org/Graphics/SVG/1.1/DTD/svg11.dtd"><svg t="1690443809854" class="icon" viewBox="0 0 1024 1024" version="1.1" xmlns="http://www.w3.org/2000/svg" p-id="17006" xmlns:xlink="http://www.w3.org/1999/xlink" width="200" height="200"><path d="M663.442286 110.482286c117.248 0 214.308571 257.645714 214.272 389.12 0 31.049143-4.754286 55.808-14.116572 73.654857-11.264 21.504-29.110857 32.877714-51.785143 32.877714-41.142857 0-78.409143-29.476571-117.869714-60.708571-47.36-37.485714-96.365714-76.251429-160.073143-76.251429-77.385143 0-116.882286 37.741714-155.062857 74.166857-33.243429 31.744-67.620571 64.512-123.684571 64.512-24.612571 0-44.251429-13.385143-56.612572-38.692571-10.386286-21.211429-15.652571-50.176-15.652571-86.125714C182.857143 332.726857 274.322286 109.714286 400.676571 109.714286h2.56l2.340572 1.097143c44.617143 19.894857 79.104 30.281143 111.250286 33.243428 15.945143 0.512 3.803429 0 24.137142 0.841143 36.059429-0.841143 72.448-11.044571 117.174858-33.170286l2.56-1.243428h2.742857zM401.810286 335.36c35.766857 0 64.914286-29.110857 64.877714-64.877714a64.950857 64.950857 0 0 0-129.828571 0c0 35.766857 29.147429 64.877714 64.950857 64.877714z m257.243428-158.72a30.537143 30.537143 0 1 0 32.841143 51.529143 30.427429 30.427429 0 0 0 9.398857-42.166857 31.305143 31.305143 0 0 0-42.24-9.362286z m-61.549714 96.841143a30.537143 30.537143 0 1 0 51.529143-32.841143 31.232 31.232 0 0 0-42.203429-9.325714 30.573714 30.573714 0 0 0-9.325714 42.166857z m82.395429 72.923428a30.610286 30.610286 0 0 0 9.362285-42.203428 31.305143 31.305143 0 0 0-42.24-9.325714 30.354286 30.354286 0 0 0-13.385143 19.163428 30.464 30.464 0 0 0 46.262858 32.365714z m65.645714-73.837714a30.171429 30.171429 0 0 0-4.096-23.04 31.305143 31.305143 0 0 0-42.166857-9.362286 30.500571 30.500571 0 0 0 16.420571 56.356572 30.500571 30.500571 0 0 0 29.842286-23.954286zM171.885714 653.165714h108.251429c62.902857 0 94.72 26.697143 94.72 80.091429 0 53.76-31.817143 80.822857-95.451429 80.822857H214.674286V914.285714H171.885714v-261.12z m42.788572 36.571429v87.771428h62.171428c19.017143 0 32.914286-3.657143 41.691429-10.24 8.777143-6.948571 13.165714-18.285714 13.165714-34.011428 0-15.725714-4.754286-26.697143-13.531428-33.28-8.777143-6.948571-22.674286-10.24-41.325715-10.24h-62.171428z m196.754285-41.691429h41.691429V914.285714h-41.691429v-266.24z m175.177143 72.045715c27.794286 0 48.64 6.948571 61.805715 20.845714 11.702857 12.068571 17.554286 29.622857 17.554285 52.662857V914.285714h-38.765714v-24.868571c-7.314286 9.508571-16.457143 16.457143-27.062857 21.577143-12.068571 5.485714-26.331429 8.411429-42.788572 8.411428-19.748571 0-35.108571-5.12-46.445714-14.994285-11.702857-10.24-17.554286-23.04-17.554286-38.765715 0-21.211429 8.045714-37.668571 24.868572-49.005714 15.36-10.971429 36.937143-16.822857 64.731428-17.554286l41.325715-1.097143v-7.314285c0-24.868571-13.531429-36.937143-40.594286-36.937143-11.702857 0-20.845714 1.828571-27.794286 6.217143-8.045714 4.754286-13.531429 12.068571-15.725714 21.942857l-41.325714-3.291429c4.022857-20.845714 14.262857-36.205714 30.72-45.714285 13.897143-8.777143 32.914286-12.8 57.051428-12.8z m37.668572 107.885714l-38.4 1.097143c-33.28 0.731429-49.737143 12.434286-49.737143 35.108571 0 6.582857 2.56 12.068571 8.411428 16.457143s13.165714 6.948571 22.308572 6.948571c16.091429 0 29.622857-4.754286 40.594286-13.897142 10.971429-9.508571 16.822857-21.577143 16.822857-36.205715v-9.508571z m65.462857-102.765714h45.348571l50.102857 134.582857 47.908572-134.582857h45.348571l-102.4 261.485714H731.428571l33.28-76.8-74.971428-184.685714z" fill="#a8b2f4" p-id="17007"></path></svg>